<?xml version="1.0" standalone="no"?>
<!DOCTYPE svg PUBLIC "-//W3C//DTD SVG 20010904//EN"
 "http://www.w3.org/TR/2001/REC-SVG-20010904/DTD/svg10.dtd">
<svg version="1.0" xmlns="http://www.w3.org/2000/svg"
 width="1280.000000pt" height="1254.000000pt" viewBox="0 0 1280.000000 1254.000000"
 preserveAspectRatio="xMidYMid meet">
<g transform="translate(0.000000,1254.000000) scale(0.100000,-0.100000)"
fill="#4caf50" stroke="none">
<path d="M4780 12530 c-66 -14 -162 -64 -218 -115 -103 -93 -152 -207 -152
-358 l0 -93 -53 -55 c-137 -141 -164 -342 -76 -571 82 -212 285 -420 506 -517
83 -36 112 -41 38 -6 -27 13 -43 24 -34 24 9 1 34 22 54 47 21 26 48 56 59 68
12 12 50 55 86 96 36 41 72 82 80 90 9 8 40 44 70 80 30 36 66 76 80 90 14 14
50 54 80 90 30 36 61 72 70 80 8 8 44 49 80 90 36 41 72 82 80 90 8 8 40 44
70 80 30 36 62 72 70 80 8 8 44 49 80 90 36 41 78 88 94 105 66 71 86 101 73
116 -15 17 32 -21 93 -76 l45 -40 -45 48 c-144 155 -399 321 -556 362 -74 19
-171 19 -208 0 -27 -14 -30 -14 -78 22 -100 73 -265 108 -388 83z"/>
<path d="M9905 12525 c-79 -21 -103 -33 -165 -76 -134 -93 -209 -254 -197
-417 l5 -72 -33 -26 c-46 -35 -101 -117 -125 -189 -24 -70 -29 -199 -11 -287
52 -246 248 -488 498 -615 51 -26 95 -44 98 -41 3 3 -7 11 -23 17 l-28 12 50
52 c28 29 80 86 116 127 36 41 72 82 80 90 8 8 40 44 70 80 30 36 62 72 70 80
8 8 44 49 80 90 36 41 72 82 80 90 9 8 40 44 70 80 30 36 66 76 80 90 14 14
50 54 80 90 30 36 61 72 70 80 8 8 44 49 80 90 36 41 72 82 80 90 8 8 40 44
70 80 30 36 59 68 65 72 5 4 24 -5 41 -20 17 -15 -4 6 -45 46 -79 77 -214 173
-312 223 -146 73 -300 100 -370 64 -28 -15 -31 -15 -67 14 -107 86 -276 122
-407 86z"/>
<path d="M3258 11334 c-64 -20 -149 -98 -179 -166 -16 -37 -23 -74 -24 -119
-1 -63 -3 -69 -43 -114 -123 -140 -84 -373 93 -551 66 -66 168 -134 225 -148
23 -6 23 -6 5 5 -11 7 -22 14 -24 15 -2 2 4 12 15 21 11 10 44 47 74 83 30 36
62 72 70 80 8 8 44 49 80 90 36 41 72 82 80 90 8 8 40 44 70 80 30 36 66 76
80 90 14 14 38 41 54 60 15 19 60 70 99 113 39 43 77 87 85 98 14 20 14 20 41
-3 14 -12 8 -3 -14 21 -127 137 -365 244 -446 200 -17 -8 -28 -6 -58 14 -83
55 -188 70 -283 41z"/>
<path d="M8384 11329 c-117 -45 -184 -140 -192 -274 -4 -68 -8 -82 -28 -98
-36 -28 -71 -96 -83 -159 -33 -185 97 -409 306 -525 62 -35 89 -43 57 -17 -10
8 -14 13 -8 10 6 -3 35 22 64 57 29 34 60 69 69 77 9 8 45 49 81 90 36 41 72
82 80 90 8 8 40 44 70 80 30 36 62 72 70 80 8 8 44 49 80 90 36 41 72 82 80
90 12 12 51 57 131 153 4 5 26 -8 50 -28 24 -20 10 -5 -31 35 -155 148 -369
243 -450 200 -15 -8 -29 -4 -67 20 -26 17 -63 35 -83 40 -55 15 -140 11 -196
-11z"/>
<path d="M2123 10519 c-87 -18 -154 -98 -155 -187 0 -38 -5 -55 -20 -69 -31
-27 -58 -92 -58 -140 0 -58 34 -143 81 -203 41 -51 124 -113 169 -125 20 -5
22 -4 9 4 -15 10 -12 15 20 49 38 40 155 171 212 237 19 22 36 42 39 45 3 3
39 43 80 90 41 47 83 93 92 104 18 19 18 19 41 0 13 -10 -1 5 -32 34 -77 73
-180 124 -246 121 -34 -2 -61 3 -85 16 -43 23 -104 33 -147 24z"/>
<path d="M7255 10518 c-86 -17 -154 -107 -155 -200 0 -29 -5 -50 -14 -55 -33
-19 -56 -77 -56 -144 0 -86 38 -166 115 -238 50 -47 159 -110 171 -98 3 2 -10
10 -28 17 -19 7 -27 14 -20 17 8 3 32 26 55 51 55 59 52 56 127 142 35 41 67
77 70 80 3 3 39 43 80 90 145 164 142 161 159 149 9 -6 -7 11 -35 37 -76 74
-145 107 -226 111 -40 1 -77 8 -91 18 -33 21 -105 32 -152 23z"/>
<path d="M2170 9423 c-43 -6 -143 -45 -180 -68 -80 -51 -140 -127 -181 -230
l-24 -60 -5 -782 -5 -781 -125 110 c-394 347 -702 556 -870 589 -71 14 -120
-4 -146 -53 -18 -33 -17 -28 -35 -593 l-3 -80 -5 80 c-6 72 -7 62 -15 -100 -6
-110 -5 -802 2 -1790 25 -3385 40 -4648 58 -4705 l8 -25 7 30 c4 19 7 -2 8
-57 1 -80 3 -88 21 -88 13 0 18 -5 14 -15 -13 -33 70 -121 149 -158 135 -63
201 -66 1402 -68 583 -1 1544 -5 2135 -9 l1075 -8 135 -26 c74 -14 181 -35
238 -45 177 -35 343 -44 666 -38 283 5 395 15 531 46 62 14 235 49 311 63 54
10 538 12 2244 13 2010 0 2181 1 2252 17 101 22 156 47 207 94 50 44 80 96 61
102 -6 2 6 12 28 22 55 25 66 49 59 135 -39 521 -1740 2798 -3687 4934 -286
315 -283 311 -273 311 5 0 1 55 -9 123 -32 225 -38 465 -38 1547 -1 1153 -1
1160 -55 1273 -35 75 -109 154 -181 195 -49 28 -55 30 -39 11 16 -18 11 -17
-25 8 -96 64 -146 76 -350 81 -145 3 -200 0 -253 -12 -157 -37 -266 -129 -329
-277 l-23 -54 -5 -794 -5 -794 -138 121 c-540 474 -883 668 -985 559 -46 -49
-45 -40 -52 -912 l-6 -830 -3 615 c-3 447 -6 593 -13 535 -6 -49 -6 -735 -1
-1790 9 -1963 9 -2075 0 -2210 -13 -185 -61 -295 -130 -295 -18 0 -17 -3 7
-35 15 -19 25 -35 22 -35 -2 0 -62 73 -133 162 -660 837 -1362 1664 -2117
2498 -294 325 -295 325 -277 315 10 -6 12 0 7 31 -39 235 -39 224 -46 1504 -6
1141 -8 1250 -24 1305 -28 94 -65 160 -122 218 -54 54 -174 131 -144 91 14
-18 14 -18 -5 -3 -35 29 -102 59 -167 74 -59 14 -347 20 -418 8z m-1563 -3310
c-1 -81 -3 -17 -3 142 0 160 2 226 3 148 2 -78 2 -208 0 -290z m5140 -695 c-1
-79 -3 -15 -3 142 0 157 2 221 3 143 2 -79 2 -207 0 -285z m-5130 -760 c-2
-29 -3 -8 -3 47 0 55 1 79 3 53 2 -26 2 -71 0 -100z m5140 -350 c-3 -8 -6 -5
-6 6 -1 11 2 17 5 13 3 -3 4 -12 1 -19z m0 -170 c-2 -29 -3 -8 -3 47 0 55 1
79 3 53 2 -26 2 -71 0 -100z m-5130 -375 c-1 -60 -3 -11 -3 107 0 118 2 167 3
108 2 -60 2 -156 0 -215z m10 -1275 c-1 -46 -3 -9 -3 82 0 91 2 128 3 83 2
-46 2 -120 0 -165z m10 -941 c-1 -67 -3 -9 -3 128 0 138 2 192 3 122 2 -71 2
-183 0 -250z"/>
</g>
</svg>
